<svg width="1086" height="871" viewBox="0 0 1086 871" fill="none" xmlns="http://www.w3.org/2000/svg">
<g filter="url(#filter0_d_111_2)">
<path d="M985.5 449L855.606 423.907C854.233 423.642 852.972 422.972 851.984 421.984L777.941 347.941C775.023 345.023 770.226 345.249 767.597 348.43L751 368.5L721.164 416.765C718.952 420.343 720.373 425.05 724.195 426.806L768.423 447.127C770.907 448.268 772.5 450.753 772.5 453.487V477.006C772.5 478.309 772.136 479.587 771.449 480.695L717.639 567.47C717.216 568.152 716.679 568.755 716.052 569.255L654.914 617.974C653.675 618.962 652.137 619.5 650.552 619.5H529.5C479.074 613.915 345.833 588.744 211.425 532.499C208.074 531.097 204.192 532.463 202.488 535.67L171.5 594M985.5 449L1026.03 526.252C1027.24 528.557 1029.63 530 1032.23 530H1061.01C1066.78 530 1070.07 536.581 1066.61 541.196L986.424 648.266C985.815 649.079 985.053 649.741 984.159 650.224C962.294 662.038 917.822 686.705 904.5 696.5C891.396 706.135 866.72 796.07 854.799 844.662C854.028 847.802 851.221 850 847.987 850H814.354C811.954 850 809.722 848.771 808.439 846.744L753.061 759.256C751.778 757.229 749.546 756 747.146 756H653C641.5 756 614.3 756 597.5 756C580.952 756 468.936 739.506 412.539 730.888C410.874 730.634 409.216 730.994 407.791 731.891L330.665 780.451C329.576 781.137 328.697 782.11 328.125 783.263L298.267 843.418C296.489 847 292.076 848.367 288.584 846.417L260.087 830.503C257.872 829.266 256.5 826.928 256.5 824.392V782.699C256.5 781.905 256.365 781.118 256.101 780.369L235.5 722L205.711 650.01C205.571 649.67 205.404 649.343 205.212 649.03L171.5 594M985.5 449L1022.58 378.768C1025.04 374.106 1021.66 368.5 1016.39 368.5H996.573C991.431 368.5 988.044 363.142 990.25 358.497L1023.25 289.003C1025.46 284.358 1022.07 279 1016.93 279H911.5C907.634 279 904.5 275.866 904.5 272V198.652C904.5 194.04 900.118 190.689 895.667 191.896L819.333 212.604C814.882 213.811 810.5 210.46 810.5 205.848V127.209C810.5 122.292 805.564 118.907 800.977 120.679L688.023 164.321C683.436 166.093 678.5 162.708 678.5 157.791V85.6413C678.5 80.3627 672.88 76.9834 668.218 79.4585L607.782 111.542C603.12 114.017 597.5 110.637 597.5 105.359V49.2324C597.5 43.611 591.208 40.2826 586.561 43.4458L484.551 112.881C481.254 115.125 476.75 114.165 474.656 110.77L416.862 17.1199C413.928 12.3643 406.878 12.7956 404.545 17.8736L362.435 109.524C360.634 113.443 355.751 114.817 352.171 112.411L302.051 78.7372C298.396 76.2818 293.409 77.7696 291.698 81.826L237.957 209.178C236.561 212.485 232.89 214.201 229.458 213.15L94.1119 171.709C88.8472 170.097 83.8684 174.913 85.3049 180.228L110.669 274.074C111.462 277.009 110.269 280.121 107.718 281.775L20.6484 338.192C17.1171 340.48 16.3881 345.345 19.0937 348.567L78.6955 419.564C80.662 421.906 80.8801 425.254 79.2342 427.832L20.8748 519.233C17.8996 523.893 21.2463 530 26.7747 530H105C108.866 530 112 533.134 112 537V608.884C112 613.91 117.138 617.298 121.757 615.318L171.5 594" stroke="white" stroke-width="26" shape-rendering="crispEdges"/>
</g>
<path d="M900 543V511C900 502.716 906.716 496 915 496H928C936.284 496 943 502.716 943 511V543" stroke="white" stroke-width="19"/>
<defs>
<filter id="filter0_d_111_2" x="0.453125" y="0.795227" width="1084.59" height="870.205" filterUnits="userSpaceOnUse" color-interpolation-filters="sRGB">
<feFlood flood-opacity="0" result="BackgroundImageFix"/>
<feColorMatrix in="SourceAlpha" type="matrix" values="0 0 0 0 0 0 0 0 0 0 0 0 0 0 0 0 0 0 127 0" result="hardAlpha"/>
<feOffset dy="4"/>
<feGaussianBlur stdDeviation="2"/>
<feComposite in2="hardAlpha" operator="out"/>
<feColorMatrix type="matrix" values="0 0 0 0 0 0 0 0 0 0 0 0 0 0 0 0 0 0 0.25 0"/>
<feBlend mode="normal" in2="BackgroundImageFix" result="effect1_dropShadow_111_2"/>
<feBlend mode="normal" in="SourceGraphic" in2="effect1_dropShadow_111_2" result="shape"/>
</filter>
</defs>
</svg>
