<svg width="1086" height="871" viewBox="0 0 1086 871" fill="none" xmlns="http://www.w3.org/2000/svg">
<g filter="url(#filter0_d_106_9)">
<path d="M986 448.5L856.106 423.407C854.733 423.142 853.472 422.472 852.484 421.484L778.441 347.441C775.523 344.523 770.726 344.749 768.097 347.93L751.5 368L721.664 416.265C719.452 419.843 720.873 424.55 724.695 426.306L768.923 446.627C771.407 447.768 773 450.253 773 452.987V476.506C773 477.809 772.636 479.087 771.949 480.195L718.139 566.97C717.716 567.652 717.179 568.255 716.552 568.755L655.414 617.474C654.175 618.462 652.637 619 651.052 619H530C479.574 613.415 346.333 588.244 211.925 531.999C208.574 530.597 204.692 531.963 202.988 535.17L172 593.5M986 448.5L1026.53 525.752C1027.74 528.057 1030.13 529.5 1032.73 529.5H1061.51C1067.28 529.5 1070.57 536.081 1067.11 540.696L986.924 647.766C986.315 648.579 985.553 649.241 984.659 649.724C962.794 661.538 918.322 686.205 905 696C891.896 705.635 867.22 795.57 855.299 844.162C854.528 847.302 851.721 849.5 848.487 849.5H814.854C812.454 849.5 810.222 848.271 808.939 846.244L753.561 758.756C752.278 756.729 750.046 755.5 747.646 755.5H653.5C642 755.5 614.8 755.5 598 755.5C581.452 755.5 469.436 739.006 413.039 730.388C411.374 730.134 409.716 730.494 408.291 731.391L331.165 779.951C330.076 780.637 329.197 781.61 328.625 782.763L298.767 842.918C296.989 846.5 292.576 847.867 289.084 845.917L260.587 830.003C258.372 828.766 257 826.428 257 823.892V782.199C257 781.405 256.865 780.618 256.601 779.869L236 721.5L206.211 649.51C206.071 649.17 205.904 648.843 205.712 648.53L172 593.5M986 448.5L1023.08 378.268C1025.54 373.606 1022.16 368 1016.89 368H997.073C991.931 368 988.544 362.642 990.75 357.997L1023.75 288.503C1025.96 283.858 1022.57 278.5 1017.43 278.5H912C908.134 278.5 905 275.366 905 271.5V198.152C905 193.54 900.618 190.189 896.167 191.396L819.833 212.104C815.382 213.311 811 209.96 811 205.348V126.709C811 121.792 806.064 118.407 801.477 120.179L688.523 163.821C683.936 165.593 679 162.208 679 157.291V85.1413C679 79.8627 673.38 76.4834 668.718 78.9585L608.282 111.042C603.62 113.517 598 110.137 598 104.859V48.7324C598 43.111 591.708 39.7826 587.061 42.9458L485.051 112.381C481.754 114.625 477.25 113.665 475.156 110.27L417.362 16.6199C414.428 11.8643 407.378 12.2956 405.045 17.3736L362.935 109.024C361.134 112.943 356.251 114.317 352.671 111.911L302.551 78.2372C298.896 75.7818 293.909 77.2696 292.198 81.326L238.457 208.678C237.061 211.985 233.39 213.701 229.958 212.65L94.6119 171.209C89.3472 169.597 84.3684 174.413 85.8049 179.728L111.169 273.574C111.962 276.509 110.769 279.621 108.218 281.275L21.1484 337.692C17.6171 339.98 16.8881 344.845 19.5937 348.067L79.1955 419.064C81.162 421.406 81.3801 424.754 79.7342 427.332L21.3748 518.733C18.3996 523.393 21.7463 529.5 27.2747 529.5H105.5C109.366 529.5 112.5 532.634 112.5 536.5V608.384C112.5 613.41 117.638 616.798 122.257 614.818L172 593.5" stroke="#15394B" stroke-width="26" shape-rendering="crispEdges"/>
</g>
<path d="M900.5 542.5V510.5C900.5 502.216 907.216 495.5 915.5 495.5H928.5C936.784 495.5 943.5 502.216 943.5 510.5V542.5" stroke="#15394B" stroke-width="19"/>
<defs>
<filter id="filter0_d_106_9" x="0.953125" y="0.295227" width="1084.59" height="870.205" filterUnits="userSpaceOnUse" color-interpolation-filters="sRGB">
<feFlood flood-opacity="0" result="BackgroundImageFix"/>
<feColorMatrix in="SourceAlpha" type="matrix" values="0 0 0 0 0 0 0 0 0 0 0 0 0 0 0 0 0 0 127 0" result="hardAlpha"/>
<feOffset dy="4"/>
<feGaussianBlur stdDeviation="2"/>
<feComposite in2="hardAlpha" operator="out"/>
<feColorMatrix type="matrix" values="0 0 0 0 0 0 0 0 0 0 0 0 0 0 0 0 0 0 0.25 0"/>
<feBlend mode="normal" in2="BackgroundImageFix" result="effect1_dropShadow_106_9"/>
<feBlend mode="normal" in="SourceGraphic" in2="effect1_dropShadow_106_9" result="shape"/>
</filter>
</defs>
</svg>
